<svg width="202" height="147" viewBox="0 0 202 147" fill="none" xmlns="http://www.w3.org/2000/svg">
<rect width="147" height="147" fill="#1F1E1E"/>
<path d="M39.9656 72.439H26.6336V50.032H26.6006V49.999H21.9146V73H39.9656V72.439Z" fill="white"/>
<path d="M43.9317 73H62.0487V72.439H48.6177V61.285H59.1117V60.691H48.6177V50.56H62.0487V49.999H43.9317V73Z" fill="white"/>
<path d="M70.6994 73V50.56C73.5704 50.56 82.4144 51.649 83.0744 64.453V73H87.7604V49.999H83.0744V60.328C81.6554 54.19 77.1674 49.999 70.6994 49.999H66.0134V73H70.6994Z" fill="white"/>
<path d="M97.3894 73V50.56C100.26 50.56 109.104 51.649 109.764 64.453V73H114.45V49.999H109.764V60.328C108.345 54.19 103.857 49.999 97.3894 49.999H92.7034V73H97.3894Z" fill="white"/>
<path d="M119.393 73H124.079V49.999H119.393V73Z" fill="white"/>
<rect x="81" y="92" width="121" height="42" fill="#BC3324"/>
<path d="M108.922 124H109.462L112.402 115.45H120.952L124.282 124H128.752L120.652 103.09H116.122L108.922 124ZM116.422 103.75L120.772 114.94H112.582L116.422 103.75Z" fill="white"/>
<path d="M132.643 103.09V124H136.903V116.77H141.973L146.863 123.97H151.723L146.563 116.32C149.563 115.54 151.843 113.68 151.843 109.51C151.843 104.29 148.033 102.64 143.593 102.64C138.913 102.64 137.563 106.15 136.903 110.05V103.09H132.643ZM138.073 107.47C138.883 104.53 140.983 103.33 142.843 103.18C147.313 102.76 147.493 105.61 147.493 109.51C147.493 115.84 144.133 116.26 141.253 116.26H136.903C136.903 116.26 136.783 112.12 138.073 107.47Z" fill="white"/>
<path d="M162.084 103.6L162.114 124H166.374V103.6H174.984V103.09H153.474V103.6H162.084Z" fill="white"/>
</svg>
