<svg  viewBox="0 0 1204 99" fill="none" xmlns="http://www.w3.org/2000/svg">
<path d="M30.688 98.048C50.656 98.048 56.8 82.176 59.616 65.408L59.872 63.872V96H78.048V55.936C78.048 33.792 58.848 30.08 43.488 30.08C20.192 30.08 9.952 38.4 5.856 44.928L19.296 51.328C8.672 53.632 0.48 60.928 0.48 72.704C0.48 93.696 13.536 98.048 30.688 98.048ZM34.784 52.224H59.104C57.696 70.656 54.112 96.128 30.56 96.128C23.008 96.128 19.168 90.752 19.168 73.984C19.168 57.984 24.416 52.224 34.784 52.224ZM24.416 50.432C24.416 47.36 29.024 32 42.848 32C58.976 32 59.36 36.992 59.36 50.048H30.56C28.384 50.048 26.336 50.176 24.416 50.432ZM142.15 96H160.326V35.456L187.206 70.4L214.086 35.456V96H232.262V32H213.83L187.206 66.944L160.454 32H142.15V96ZM245.025 32V96H278.689C300.321 96 317.729 93.44 317.729 71.168C317.729 51.456 298.401 46.592 282.145 46.592H263.201V32H245.025ZM263.201 93.824V48.768H276.129C287.521 48.768 298.913 53.12 298.913 71.168C298.913 89.344 290.465 93.824 272.673 93.824H263.201ZM323.489 32V96H341.665V32H323.489ZM445.071 96C460.559 96 477.583 96.384 477.583 78.592C477.583 65.792 468.367 62.464 457.231 61.44C464.271 59.904 472.463 55.808 472.463 45.952C472.463 32 459.279 30.08 445.839 30.08C431.119 30.08 425.359 38.656 423.823 44.16V32H405.775V96H445.071ZM423.823 62.72H442.895C453.775 62.72 458.511 65.792 458.511 78.72C458.511 93.824 451.215 93.824 438.159 93.824H423.823V62.72ZM423.823 51.456C425.231 41.856 431.375 32.384 443.791 32.384C451.343 32.384 454.031 34.816 454.031 46.08C454.031 59.136 448.911 60.544 441.359 60.544H423.823C423.823 57.728 423.823 54.272 423.823 51.456ZM516.813 98.048C536.781 98.048 542.925 82.176 545.741 65.408L545.997 63.872V96H564.173V55.936C564.173 33.792 544.973 30.08 529.613 30.08C506.317 30.08 496.077 38.4 491.981 44.928L505.421 51.328C494.797 53.632 486.605 60.928 486.605 72.704C486.605 93.696 499.661 98.048 516.813 98.048ZM520.909 52.224H545.229C543.821 70.656 540.237 96.128 516.685 96.128C509.133 96.128 505.293 90.752 505.293 73.984C505.293 57.984 510.541 52.224 520.909 52.224ZM510.541 50.432C510.541 47.36 515.149 32 528.973 32C545.101 32 545.485 36.992 545.485 50.048H516.685C514.509 50.048 512.461 50.176 510.541 50.432ZM577.025 96H595.201V35.456L622.081 70.4L648.961 35.456V96H667.137V32H648.705L622.081 66.944L595.329 32H577.025V96ZM731.15 32V96H749.326V34.176H787.854V96H806.03V32H731.15ZM816.855 64.128C816.855 86.528 836.311 98.048 857.303 98.048C878.167 98.048 897.751 86.528 897.751 64.128C897.751 41.6 878.167 29.952 857.303 29.952C836.311 29.952 816.855 41.6 816.855 64.128ZM857.303 32C873.303 32 879.063 41.984 879.063 64.128C879.063 85.888 874.199 96.128 857.303 96.128C839.895 96.128 835.543 85.888 835.543 64.128C835.543 41.984 841.431 32 857.303 32ZM908.65 96H926.826V35.456L953.706 70.4L980.586 35.456V96H998.762V32H980.33L953.706 66.944L926.954 32H908.65V96ZM1009.61 64.128C1009.61 86.528 1029.06 98.048 1050.05 98.048C1070.92 98.048 1090.5 86.528 1090.5 64.128C1090.5 41.6 1070.92 29.952 1050.05 29.952C1029.06 29.952 1009.61 41.6 1009.61 64.128ZM1050.05 32C1066.05 32 1071.81 41.984 1071.81 64.128C1071.81 85.888 1066.95 96.128 1050.05 96.128C1032.65 96.128 1028.29 85.888 1028.29 64.128C1028.29 41.984 1034.18 32 1050.05 32ZM1096.98 96H1115.67C1115.67 73.856 1121.68 63.232 1137.43 63.232H1143.83V96H1162V63.232H1168.15C1183.89 63.232 1189.91 73.856 1189.91 96H1208.6C1208.6 74.752 1193.11 61.056 1171.09 61.056V56.704C1171.09 44.928 1171.99 32.512 1187.48 32.512C1193.62 32.512 1198.48 37.376 1198.48 43.52C1198.48 49.536 1193.62 54.528 1187.48 54.528V56.704C1194.77 56.704 1200.66 50.816 1200.66 43.52C1200.66 36.224 1194.77 30.336 1187.48 30.336C1169.43 30.336 1168.92 45.312 1168.92 58.88V61.056H1162V0.639992H1143.83V61.056H1136.79V58.88C1136.79 45.312 1136.15 30.336 1118.1 30.336C1110.93 30.336 1104.92 36.224 1104.92 43.52C1104.92 50.816 1110.93 56.704 1118.1 56.704V54.528C1112.08 54.528 1107.09 49.536 1107.09 43.52C1107.09 37.376 1112.08 32.512 1118.1 32.512C1133.59 32.512 1134.48 44.928 1134.48 56.704V61.056C1112.6 61.056 1096.98 74.752 1096.98 96ZM1216.36 64.128C1216.36 83.584 1230.95 98.048 1255.91 98.048C1268.07 98.048 1276.51 94.592 1286.5 86.528L1285.35 85.12C1277.03 92.288 1266.79 95.872 1255.14 95.872C1240.29 95.872 1236.32 82.56 1235.56 70.016H1284.84C1284.84 48.768 1281.38 30.08 1255.14 30.08C1234.92 30.08 1216.36 41.984 1216.36 64.128ZM1235.43 67.968V64.256C1235.43 50.688 1238.5 32.128 1255.14 32.128C1278.69 32.128 1282.66 48.768 1282.66 67.968H1235.43ZM1296.15 96H1314.33V35.456L1341.21 70.4L1368.09 35.456V96H1386.26V32H1367.83L1341.21 66.944L1314.45 32H1296.15V96Z" fill="currentColor"/>
</svg>
