<svg viewBox="0 0 24 24" fill="none" xmlns="http://www.w3.org/2000/svg">
<g id="insta">
<path id="Vector" d="M12 7C10.6739 7 9.40215 7.52678 8.46447 8.46447C7.52678 9.40215 7 10.6739 7 12C7 13.3261 7.52678 14.5979 8.46447 15.5355C9.40215 16.4732 10.6739 17 12 17C13.3261 17 14.5979 16.4732 15.5355 15.5355C16.4732 14.5979 17 13.3261 17 12C17 10.6739 16.4732 9.40215 15.5355 8.46447C14.5979 7.52678 13.3261 7 12 7ZM12 15.2472C11.1385 15.2472 10.3123 14.905 9.70313 14.2958C9.09396 13.6866 8.75173 12.8604 8.75173 11.9989C8.75173 11.1374 9.09396 10.3112 9.70313 9.70205C10.3123 9.09288 11.1385 8.75065 12 8.75065C12.8615 8.75065 13.6877 9.09288 14.2969 9.70205C14.906 10.3112 15.2483 11.1374 15.2483 11.9989C15.2483 12.8604 14.906 13.6866 14.2969 14.2958C13.6877 14.905 12.8615 15.2472 12 15.2472Z" fill="white"/>
<path id="Vector_2" d="M17 8C17.5523 8 18 7.55228 18 7C18 6.44771 17.5523 6 17 6C16.4477 6 16 6.44771 16 7C16 7.55228 16.4477 8 17 8Z" fill="white"/>
<path id="Vector_3" d="M21.4702 5.44422C21.2131 4.7813 20.8202 4.17929 20.3167 3.67671C19.8131 3.17414 19.21 2.78207 18.546 2.52562C17.7689 2.23437 16.948 2.07689 16.1182 2.05988C15.0486 2.01331 14.7099 2 11.9978 2C9.28565 2 8.93803 2 7.87739 2.05988C7.04819 2.07602 6.22785 2.23353 5.4518 2.52562C4.78758 2.78177 4.18432 3.17373 3.68074 3.67635C3.17715 4.17896 2.78435 4.78113 2.52754 5.44422C2.23579 6.22002 2.07843 7.03974 2.06219 7.86826C2.01444 8.93502 2 9.27323 2 11.9823C2 14.6902 2 15.035 2.06219 16.0963C2.07885 16.9257 2.23545 17.7441 2.52754 18.5214C2.78507 19.1843 3.17825 19.7862 3.68196 20.2887C4.18567 20.7913 4.78883 21.1834 5.45291 21.44C6.22749 21.743 7.04817 21.9117 7.87961 21.939C8.94913 21.9856 9.28787 22 12 22C14.7121 22 15.0598 22 16.1204 21.939C16.9501 21.9222 17.771 21.7651 18.5482 21.4744C19.2121 21.2173 19.815 20.8249 20.3185 20.3222C20.822 19.8195 21.215 19.2175 21.4725 18.5547C21.7645 17.7784 21.9211 16.9601 21.9378 16.1306C21.9856 15.0639 22 14.7257 22 12.0166C22 9.30761 22 8.96385 21.9378 7.90264C21.9249 7.0624 21.7667 6.2307 21.4702 5.44422ZM20.1175 16.0142C20.1103 16.6533 19.9935 17.2864 19.7721 17.886C19.6053 18.3172 19.35 18.7088 19.0225 19.0356C18.695 19.3623 18.3027 19.617 17.8707 19.7833C17.2768 20.0034 16.6494 20.12 16.016 20.1282C14.9609 20.177 14.6633 20.1892 11.9578 20.1892C9.25011 20.1892 8.97357 20.1892 7.89849 20.1282C7.26536 20.1205 6.6383 20.0038 6.04487 19.7833C5.61138 19.6181 5.21746 19.3638 4.88859 19.037C4.55973 18.7102 4.30324 18.318 4.13572 17.886C3.91742 17.2928 3.80066 16.6672 3.79032 16.0353C3.74256 14.9818 3.73145 14.6846 3.73145 11.9834C3.73145 9.28099 3.73145 9.00488 3.79032 7.93036C3.79749 7.29166 3.91432 6.65893 4.13572 6.05966C4.47446 5.18474 5.16859 4.49612 6.04487 4.16123C6.63859 3.94183 7.26547 3.8252 7.89849 3.81637C8.95469 3.76868 9.25122 3.75538 11.9578 3.75538C14.6644 3.75538 14.942 3.75538 16.016 3.81637C16.6495 3.82398 17.2769 3.94064 17.8707 4.16123C18.3027 4.32787 18.695 4.58284 19.0224 4.90977C19.3498 5.2367 19.6052 5.62838 19.7721 6.05966C19.9904 6.65286 20.1072 7.27851 20.1175 7.9104C20.1653 8.96496 20.1775 9.26103 20.1775 11.9634C20.1775 14.6647 20.1775 14.9552 20.1297 16.0153H20.1175V16.0142Z" fill="white"/>
</g>
</svg>
