<svg viewBox="0 0 24 24" fill="none" xmlns="http://www.w3.org/2000/svg">
<g id="la:vk">
<path id="Vector" d="M5.71091 2C4.72789 2.00383 3.78623 2.39603 3.09113 3.09113C2.39603 3.78623 2.00383 4.72789 2 5.71091V18.2891C2.00383 19.2721 2.39603 20.2138 3.09113 20.9089C3.78623 21.604 4.72789 21.9962 5.71091 22H18.2891C19.2721 21.9962 20.2138 21.604 20.9089 20.9089C21.604 20.2138 21.9962 19.2721 22 18.2891V5.71091C21.9962 4.72789 21.604 3.78623 20.9089 3.09113C20.2138 2.39603 19.2721 2.00383 18.2891 2H5.71091ZM5.71091 3.81818H18.2891C19.3436 3.81818 20.1818 4.65636 20.1818 5.71091V18.2891C20.1818 19.3436 19.3436 20.1818 18.2891 20.1818H5.71091C5.46191 20.1834 5.21509 20.1355 4.98474 20.0409C4.7544 19.9464 4.54512 19.807 4.36905 19.631C4.19298 19.4549 4.05362 19.2456 3.95906 19.0153C3.8645 18.7849 3.81661 18.5381 3.81818 18.2891V5.71091C3.81818 4.65636 4.65636 3.81818 5.71091 3.81818Z" fill="currentColor"/>
<path id="Vector_2" fill-rule="evenodd" clip-rule="evenodd" d="M17.7248 9.40629C17.8078 9.17229 17.7248 9 17.3273 9H16.0148C15.6808 9 15.5268 9.14871 15.4433 9.31286C15.4433 9.31286 14.7758 10.6826 13.8303 11.5723C13.5243 11.8303 13.3853 11.9121 13.2183 11.9121C13.1349 11.9121 13.0094 11.8303 13.0094 11.5959V9.40629C13.0094 9.12514 12.9174 9 12.6394 9H10.5754C10.3669 9 10.2414 9.13029 10.2414 9.25414C10.2414 9.52029 10.7144 9.582 10.7629 10.3311V11.9589C10.7629 12.3159 10.6864 12.3806 10.5194 12.3806C10.0744 12.3806 8.99194 11.0044 8.34945 9.42986C8.22495 9.12343 8.09896 9 7.76346 9H6.44999C6.075 9 6 9.14871 6 9.31286C6 9.60514 6.44499 11.0571 8.07246 12.9776C9.15743 14.289 10.6849 15 12.0764 15C12.9109 15 13.0139 14.8423 13.0139 14.5701V13.5789C13.0139 13.263 13.0929 13.2 13.3573 13.2C13.5523 13.2 13.8858 13.2823 14.6648 13.9144C15.5548 14.664 15.7013 15 16.2023 15H17.5148C17.8898 15 18.0777 14.8423 17.9698 14.5303C17.8508 14.22 17.4258 13.7696 16.8623 13.2351C16.5563 12.9309 16.0973 12.603 15.9578 12.4389C15.7633 12.2284 15.8188 12.1346 15.9578 11.9473C15.9578 11.9473 17.5578 10.0504 17.7243 9.40629H17.7248Z" fill="currentColor"/>
</g>
</svg>
