<svg  viewBox="0 0 92 62" fill="none" xmlns="http://www.w3.org/2000/svg">
<path d="M52 9.78681C47.8219 5.59123 42.4987 2.73401 36.7034 1.57646C30.9082 0.418901 24.9014 1.013 19.4424 3.28363C13.9834 5.55426 9.31758 9.39943 6.03486 14.3329C2.75214 19.2664 0.999997 25.0666 0.999997 31C0.999998 36.9334 2.75214 42.7336 6.03486 47.6671C9.31758 52.6006 13.9834 56.4457 19.4424 58.7164C24.9014 60.987 30.9082 61.5811 36.7035 60.4235C42.4987 59.266 47.8219 56.4088 52 52.2132" stroke="currentColor" stroke-width="2" stroke-linecap="round"/>
<path d="M87 31L27 31" stroke="currentColor" stroke-width="2" stroke-linecap="round" stroke-linejoin="round"/>
<path d="M34 38L27 31L34 24" stroke="currentColor" stroke-width="2" stroke-linecap="round" stroke-linejoin="round"/>
</svg>
