<svg  viewBox="0 0 1920 124" fill="none" xmlns="http://www.w3.org/2000/svg">
<path d="M-27.424 90V2.96H20.576V90H38.752V0.783997H-45.6V90H-27.424ZM51.525 123.664H69.701C69.701 123.664 69.701 88.464 69.701 87.312C73.285 88.976 80.453 92.176 91.205 92.176C112.197 92.176 132.293 87.184 132.293 58.896C132.293 31.376 117.317 23.952 98.885 23.952C84.549 23.952 77.637 31.12 72.261 47.248C70.981 50.96 70.341 54.8 69.701 58.64V26H51.525V123.664ZM95.941 26.384C109.765 26.384 113.605 40.208 113.605 58.896C113.605 85.904 104.389 89.616 88.517 89.616C77.765 89.616 73.157 86.032 69.701 84.368C70.085 67.6 72.389 26.384 95.941 26.384ZM141.23 58.128C141.23 80.528 160.686 92.048 181.678 92.048C202.542 92.048 222.126 80.528 222.126 58.128C222.126 35.6 202.542 23.952 181.678 23.952C160.686 23.952 141.23 35.6 141.23 58.128ZM181.678 26C197.678 26 203.438 35.984 203.438 58.128C203.438 79.888 198.574 90.128 181.678 90.128C164.27 90.128 159.918 79.888 159.918 58.128C159.918 35.984 165.806 26 181.678 26ZM269.889 92.048C289.729 92.048 299.073 82.32 301.249 80.528L300.225 79.248C291.905 86.416 281.537 89.872 269.889 89.872C254.657 89.872 250.049 76.048 250.049 58.128C250.049 36.752 257.473 26.256 269.889 26.256C287.169 26.256 293.825 33.68 295.233 42L297.409 41.488C296.001 32.144 287.425 24.08 269.889 24.08C246.849 24.08 231.105 38.416 231.105 58.128C231.105 77.584 245.697 92.048 269.889 92.048ZM329.844 28.176V90H348.02V28.176H373.236V26H304.5V28.176H329.844ZM371.355 58.128C371.355 80.528 390.811 92.048 411.803 92.048C432.667 92.048 452.251 80.528 452.251 58.128C452.251 35.6 432.667 23.952 411.803 23.952C390.811 23.952 371.355 35.6 371.355 58.128ZM411.803 26C427.803 26 433.563 35.984 433.563 58.128C433.563 79.888 428.699 90.128 411.803 90.128C394.395 90.128 390.043 79.888 390.043 58.128C390.043 35.984 395.931 26 411.803 26ZM578.912 90C585.824 90.128 591.584 95.76 591.584 102.928C591.584 109.968 585.824 115.728 578.656 115.728C571.488 115.728 565.728 109.968 565.728 102.928H563.68C563.68 111.12 570.336 117.904 578.656 117.904C586.976 117.904 593.632 111.12 593.632 102.928C593.632 95.248 588.384 88.976 580.576 87.952C571.744 63.888 565.6 49.936 556.384 26H537.312L525.152 61.328C516.832 85.52 514.656 87.824 509.28 87.824V90H578.912ZM517.856 85.008C520.416 80.912 523.232 73.488 527.2 62.096L538.592 29.2L561.376 87.952H515.424C516.192 87.184 517.088 86.288 517.856 85.008ZM584.48 58.128C584.48 77.584 599.072 92.048 624.032 92.048C636.192 92.048 644.64 88.592 654.624 80.528L653.472 79.12C645.152 86.288 634.912 89.872 623.264 89.872C608.416 89.872 604.448 76.56 603.68 64.016H652.96C652.96 42.768 649.504 24.08 623.264 24.08C603.04 24.08 584.48 35.984 584.48 58.128ZM603.552 61.968V58.256C603.552 44.688 606.624 26.128 623.264 26.128C646.816 26.128 650.784 42.768 650.784 61.968H603.552ZM659.215 90H661.519L682.127 29.072L705.807 90H724.879L700.047 26H680.975L659.215 90ZM760.938 92.048C780.906 92.048 787.05 76.176 789.866 59.408L790.122 57.872V90H808.298V49.936C808.298 27.792 789.098 24.08 773.738 24.08C750.442 24.08 740.202 32.4 736.106 38.928L749.546 45.328C738.922 47.632 730.73 54.928 730.73 66.704C730.73 87.696 743.786 92.048 760.938 92.048ZM765.034 46.224H789.354C787.946 64.656 784.362 90.128 760.81 90.128C753.258 90.128 749.418 84.752 749.418 67.984C749.418 51.984 754.666 46.224 765.034 46.224ZM754.666 44.432C754.666 41.36 759.274 26 773.098 26C789.226 26 789.61 30.992 789.61 44.048H760.81C758.634 44.048 756.586 44.176 754.666 44.432ZM821.15 90H839.326C844.19 90 856.222 88.592 866.334 80.016C874.27 73.232 879.006 63.76 881.822 51.088V90H899.998V26H881.822V34.32C879.39 83.344 849.31 87.696 839.326 87.824V26H821.15V90ZM860.574 16.4C865.822 16.4 870.046 12.176 870.046 7.056H867.87C867.87 11.024 864.67 14.352 860.574 14.352C856.606 14.352 853.278 11.024 853.278 7.056H851.23C851.23 12.176 855.454 16.4 860.574 16.4ZM931.719 28.176V90H949.895V28.176H975.111V26H906.375V28.176H931.719ZM973.23 58.128C973.23 77.584 987.822 92.048 1012.78 92.048C1024.94 92.048 1033.39 88.592 1043.37 80.528L1042.22 79.12C1033.9 86.288 1023.66 89.872 1012.01 89.872C997.166 89.872 993.198 76.56 992.43 64.016H1041.71C1041.71 42.768 1038.25 24.08 1012.01 24.08C991.79 24.08 973.23 35.984 973.23 58.128ZM992.302 61.968V58.256C992.302 44.688 995.374 26.128 1012.01 26.128C1035.57 26.128 1039.53 42.768 1039.53 61.968H992.302ZM1059.68 92.176C1063.01 92.176 1066.34 90.256 1068.13 87.696C1068.26 92.304 1066.47 96.528 1061.99 98.448C1060.71 98.96 1059.3 99.216 1057.89 99.216C1055.71 99.216 1053.41 98.576 1051.36 97.424L1050.34 99.344C1052.64 100.624 1055.2 101.264 1057.89 101.264C1063.27 101.264 1068.13 98.064 1069.67 92.688C1070.56 89.616 1070.69 84.24 1070.43 81.296C1069.79 75.152 1065.44 71.184 1059.68 71.184C1053.92 71.184 1049.19 75.792 1049.19 81.68C1049.19 87.312 1054.18 92.176 1059.68 92.176ZM1157.27 70.032C1173.78 70.032 1179.8 60.432 1183.26 42.384V90H1201.43V26H1183.26C1183.26 29.328 1183.38 33.552 1179.8 48.144C1175.96 63.504 1168.54 67.856 1157.14 67.856C1149.59 67.856 1149.08 63.12 1149.08 49.168V26H1130.78V42.256C1130.78 61.584 1140.12 70.032 1157.27 70.032ZM1233.22 28.176V90H1251.4V28.176H1276.61V26H1207.88V28.176H1233.22ZM1274.73 58.128C1274.73 80.528 1294.19 92.048 1315.18 92.048C1336.04 92.048 1355.63 80.528 1355.63 58.128C1355.63 35.6 1336.04 23.952 1315.18 23.952C1294.19 23.952 1274.73 35.6 1274.73 58.128ZM1315.18 26C1331.18 26 1336.94 35.984 1336.94 58.128C1336.94 79.888 1332.07 90.128 1315.18 90.128C1297.77 90.128 1293.42 79.888 1293.42 58.128C1293.42 35.984 1299.31 26 1315.18 26ZM1435.95 90V57.36H1478.19V90H1496.37V26H1478.19V55.184H1435.95V26H1417.78V90H1435.95ZM1509.15 123.664H1527.33C1527.33 123.664 1527.33 88.464 1527.33 87.312C1530.91 88.976 1538.08 92.176 1548.83 92.176C1569.82 92.176 1589.92 87.184 1589.92 58.896C1589.92 31.376 1574.94 23.952 1556.51 23.952C1542.17 23.952 1535.26 31.12 1529.89 47.248C1528.61 50.96 1527.97 54.8 1527.33 58.64V26H1509.15V123.664ZM1553.57 26.384C1567.39 26.384 1571.23 40.208 1571.23 58.896C1571.23 85.904 1562.01 89.616 1546.14 89.616C1535.39 89.616 1530.78 86.032 1527.33 84.368C1527.71 67.6 1530.01 26.384 1553.57 26.384ZM1629.06 92.048C1649.03 92.048 1655.18 76.176 1657.99 59.408L1658.25 57.872V90H1676.42V49.936C1676.42 27.792 1657.22 24.08 1641.86 24.08C1618.57 24.08 1608.33 32.4 1604.23 38.928L1617.67 45.328C1607.05 47.632 1598.86 54.928 1598.86 66.704C1598.86 87.696 1611.91 92.048 1629.06 92.048ZM1633.16 46.224H1657.48C1656.07 64.656 1652.49 90.128 1628.94 90.128C1621.38 90.128 1617.54 84.752 1617.54 67.984C1617.54 51.984 1622.79 46.224 1633.16 46.224ZM1622.79 44.432C1622.79 41.36 1627.4 26 1641.22 26C1657.35 26 1657.74 30.992 1657.74 44.048H1628.94C1626.76 44.048 1624.71 44.176 1622.79 44.432ZM1728.57 90C1744.06 90 1761.08 90.384 1761.08 72.592C1761.08 59.792 1751.87 56.464 1740.73 55.44C1747.77 53.904 1755.96 49.808 1755.96 39.952C1755.96 26 1742.78 24.08 1729.34 24.08C1714.62 24.08 1708.86 32.656 1707.32 38.16V26H1689.28V90H1728.57ZM1707.32 56.72H1726.4C1737.28 56.72 1742.01 59.792 1742.01 72.72C1742.01 87.824 1734.72 87.824 1721.66 87.824H1707.32V56.72ZM1707.32 45.456C1708.73 35.856 1714.88 26.384 1727.29 26.384C1734.84 26.384 1737.53 28.816 1737.53 40.08C1737.53 53.136 1732.41 54.544 1724.86 54.544H1707.32C1707.32 51.728 1707.32 48.272 1707.32 45.456ZM1772.03 90H1790.2C1812.73 90 1827.83 73.36 1832.7 51.088V90H1850.87V26H1832.7V34.192C1830.26 83.216 1800.19 87.824 1790.2 87.824V26H1772.03V90ZM1882.59 28.176V90H1900.77V28.176H1925.99V26H1857.25V28.176H1882.59ZM1962.89 92.048C1982.73 92.048 1992.07 82.32 1994.25 80.528L1993.23 79.248C1984.91 86.416 1974.54 89.872 1962.89 89.872C1947.66 89.872 1943.05 76.048 1943.05 58.128C1943.05 36.752 1950.47 26.256 1962.89 26.256C1980.17 26.256 1986.83 33.68 1988.23 42L1990.41 41.488C1989 32.144 1980.43 24.08 1962.89 24.08C1939.85 24.08 1924.11 38.416 1924.11 58.128C1924.11 77.584 1938.7 92.048 1962.89 92.048ZM2031.55 65.68L2025.15 82.576C2023.74 86.416 2020.03 89.104 2015.93 89.104H2015.42C2010.04 89.104 2005.82 84.112 2005.82 78.864C2005.82 76.176 2006.84 73.744 2008.64 71.824L2007.1 70.288C2004.92 72.592 2003.64 75.664 2003.64 78.864C2003.64 85.264 2008.76 91.152 2015.42 91.152H2015.93C2020.92 91.152 2025.4 88.08 2027.2 83.344L2033.85 65.68H2056.51C2057.02 72.72 2057.02 85.392 2057.02 90H2075.45V26H2057.02V47.888C2056.64 42.512 2053.95 23.824 2033.72 23.824C2015.55 23.824 2001.98 29.584 2001.98 44.048C2001.98 59.024 2009.66 65.68 2031.55 65.68ZM2034.75 25.744C2055.23 25.744 2055.87 49.68 2056.25 60.176L2056.38 63.504H2036.8C2025.79 63.504 2020.41 59.152 2020.41 44.816C2020.41 30.224 2026.04 25.744 2034.75 25.744ZM2094.81 92.176C2098.13 92.176 2101.46 90.256 2103.25 87.696C2103.38 92.304 2101.59 96.528 2097.11 98.448C2095.83 98.96 2094.42 99.216 2093.01 99.216C2090.84 99.216 2088.53 98.576 2086.49 97.424L2085.46 99.344C2087.77 100.624 2090.33 101.264 2093.01 101.264C2098.39 101.264 2103.25 98.064 2104.79 92.688C2105.69 89.616 2105.81 84.24 2105.56 81.296C2104.92 75.152 2100.57 71.184 2094.81 71.184C2089.05 71.184 2084.31 75.792 2084.31 81.68C2084.31 87.312 2089.3 92.176 2094.81 92.176Z" fill="#1F1E1E"/>
</svg>
