<svg width="58" height="58" viewBox="0 0 58 58" fill="none" xmlns="http://www.w3.org/2000/svg">
<circle cx="29" cy="29" r="29" fill="currentColor"/>
<path d="M29 24C27.6739 24 26.4021 24.5268 25.4645 25.4645C24.5268 26.4021 24 27.6739 24 29C24 30.3261 24.5268 31.5979 25.4645 32.5355C26.4021 33.4732 27.6739 34 29 34C30.3261 34 31.5979 33.4732 32.5355 32.5355C33.4732 31.5979 34 30.3261 34 29C34 27.6739 33.4732 26.4021 32.5355 25.4645C31.5979 24.5268 30.3261 24 29 24ZM29 32.2472C28.1385 32.2472 27.3123 31.905 26.7031 31.2958C26.094 30.6866 25.7517 29.8604 25.7517 28.9989C25.7517 28.1374 26.094 27.3112 26.7031 26.702C27.3123 26.0929 28.1385 25.7506 29 25.7506C29.8615 25.7506 30.6877 26.0929 31.2969 26.702C31.906 27.3112 32.2483 28.1374 32.2483 28.9989C32.2483 29.8604 31.906 30.6866 31.2969 31.2958C30.6877 31.905 29.8615 32.2472 29 32.2472Z" fill="white"/>
<path d="M34 25C34.5523 25 35 24.5523 35 24C35 23.4477 34.5523 23 34 23C33.4477 23 33 23.4477 33 24C33 24.5523 33.4477 25 34 25Z" fill="white"/>
<path d="M38.4702 22.4442C38.2131 21.7813 37.8202 21.1793 37.3167 20.6767C36.8131 20.1741 36.21 19.7821 35.546 19.5256C34.7689 19.2344 33.948 19.0769 33.1182 19.0599C32.0486 19.0133 31.7099 19 28.9978 19C26.2857 19 25.938 19 24.8774 19.0599C24.0482 19.076 23.2279 19.2335 22.4518 19.5256C21.7876 19.7818 21.1843 20.1737 20.6807 20.6763C20.1771 21.179 19.7843 21.7811 19.5275 22.4442C19.2358 23.22 19.0784 24.0397 19.0622 24.8683C19.0144 25.935 19 26.2732 19 28.9823C19 31.6902 19 32.035 19.0622 33.0963C19.0789 33.9257 19.2355 34.7441 19.5275 35.5214C19.7851 36.1843 20.1782 36.7862 20.682 37.2887C21.1857 37.7913 21.7888 38.1834 22.4529 38.44C23.2275 38.743 24.0482 38.9117 24.8796 38.939C25.9491 38.9856 26.2879 39 29 39C31.7121 39 32.0598 39 33.1204 38.939C33.9501 38.9222 34.771 38.7651 35.5482 38.4744C36.2121 38.2173 36.815 37.8249 37.3185 37.3222C37.822 36.8195 38.215 36.2175 38.4725 35.5547C38.7645 34.7784 38.9211 33.9601 38.9378 33.1306C38.9856 32.0639 39 31.7257 39 29.0166C39 26.3076 39 25.9639 38.9378 24.9026C38.9249 24.0624 38.7667 23.2307 38.4702 22.4442ZM37.1175 33.0142C37.1103 33.6533 36.9935 34.2864 36.7721 34.886C36.6053 35.3172 36.35 35.7088 36.0225 36.0356C35.695 36.3623 35.3027 36.617 34.8707 36.7833C34.2768 37.0034 33.6494 37.12 33.016 37.1282C31.9609 37.177 31.6633 37.1892 28.9578 37.1892C26.2501 37.1892 25.9736 37.1892 24.8985 37.1282C24.2654 37.1205 23.6383 37.0038 23.0449 36.7833C22.6114 36.6181 22.2175 36.3638 21.8886 36.037C21.5597 35.7102 21.3032 35.318 21.1357 34.886C20.9174 34.2928 20.8007 33.6672 20.7903 33.0353C20.7426 31.9818 20.7315 31.6846 20.7315 28.9834C20.7315 26.281 20.7315 26.0049 20.7903 24.9304C20.7975 24.2917 20.9143 23.6589 21.1357 23.0597C21.4745 22.1847 22.1686 21.4961 23.0449 21.1612C23.6386 20.9418 24.2655 20.8252 24.8985 20.8164C25.9547 20.7687 26.2512 20.7554 28.9578 20.7554C31.6644 20.7554 31.942 20.7554 33.016 20.8164C33.6495 20.824 34.2769 20.9406 34.8707 21.1612C35.3027 21.3279 35.695 21.5828 36.0224 21.9098C36.3498 22.2367 36.6052 22.6284 36.7721 23.0597C36.9904 23.6529 37.1072 24.2785 37.1175 24.9104C37.1653 25.965 37.1775 26.261 37.1775 28.9634C37.1775 31.6647 37.1775 31.9552 37.1297 33.0153H37.1175V33.0142Z" fill="white"/>
</svg>
